# xmcd
#
# Track frame offsets:
#	150
#	9318
#	20747
#	32265
#	42855
#	56068
#	72909
#	86414
#	101613
#	115972
#	125250
#	137675
#	149936
#	162870
#	178973
#	190915
#	202701
#	221455
#
# Disc length: 3175 seconds
#
# Revision: 1
# Processed by: cddbd v1.4PL0 Copyright (c) Steve Scherf et al.
# Submitted via: audiograbber 1.80
#
DISCID=fc0c6512
DTITLE=Western Railroad - The first Time 1986 - 1993
DYEAR=1900
DGENRE=
TTITLE0=Geboren um den Dieseltruck zufahren
TTITLE1=Dieselqualm
TTITLE2=Der letzte Zug
TTITLE3=Räder in der Nacht
TTITLE4=Kreuz und quer durch Deutschland
TTITLE5=Der dicke Trucker
TTITLE6=Hör ich Bier, bin ich hier
TTITLE7=San Francisco bitte
TTITLE8=Immer wieder Whiskey pur
TTITLE9=Cigarettes, Whuskey and wild wild woman
TTITLE10=Dixieland
TTITLE11=Yankee Doddle
TTITLE12=Cottonfields
TTITLE13=Orange Blossom Special
TTITLE14=She´ll be coming round the mountain
TTITLE15=North to Alaska
TTITLE16=I´m a survivor
TTITLE17=The Gambler
EXTD=Deutsch Amerikanischer Country
EXTT0=
EXTT1=
EXTT2=
EXTT3=
EXTT4=
EXTT5=
EXTT6=
EXTT7=
EXTT8=
EXTT9=
EXTT10=
EXTT11=
EXTT12=
EXTT13=
EXTT14=
EXTT15=
EXTT16=
EXTT17=
PLAYORDER=
